<svg width="18" height="16" viewBox="0 0 18 16" fill="none" xmlns="http://www.w3.org/2000/svg">
<path d="M2.37305 3.39014H14.9902C15.1465 3.39014 15.2962 3.41618 15.4395 3.46826C15.5827 3.52034 15.7129 3.59847 15.8301 3.70264C15.9473 3.8068 16.0417 3.92725 16.1133 4.06396C16.1849 4.20068 16.2272 4.34066 16.2402 4.48389C16.2402 4.49691 16.2402 4.50342 16.2402 4.50342L17.3535 14.5034C17.3665 14.5946 17.3665 14.6825 17.3535 14.7671C17.3405 14.8517 17.321 14.9331 17.2949 15.0112C17.2689 15.1024 17.2363 15.1838 17.1973 15.2554C17.1582 15.327 17.1061 15.3953 17.041 15.4604C16.9889 15.5386 16.9271 15.6037 16.8555 15.6558C16.7839 15.7078 16.709 15.7469 16.6309 15.7729C16.5397 15.812 16.4518 15.8413 16.3672 15.8608C16.2826 15.8804 16.2012 15.8901 16.123 15.8901H1.24023C1.16211 15.8901 1.08073 15.8804 0.996094 15.8608C0.911458 15.8413 0.823568 15.812 0.732422 15.7729C0.654297 15.7469 0.579427 15.7078 0.507812 15.6558C0.436198 15.6037 0.374349 15.5386 0.322266 15.4604C0.257161 15.3953 0.205078 15.327 0.166016 15.2554C0.126953 15.1838 0.094401 15.1024 0.0683594 15.0112C0.0423177 14.9331 0.0227865 14.8517 0.00976562 14.7671C-0.00325521 14.6825 -0.00325521 14.5946 0.00976562 14.5034L1.12305 4.50342C1.12305 4.50342 1.12305 4.49691 1.12305 4.48389C1.13607 4.34066 1.17839 4.20068 1.25 4.06396C1.32161 3.92725 1.41602 3.8068 1.5332 3.70264C1.65039 3.59847 1.7806 3.52034 1.92383 3.46826C2.06706 3.41618 2.2168 3.39014 2.37305 3.39014ZM14.9902 4.64014H2.37305L1.25977 14.6401H16.1035L14.9902 4.64014ZM8.68164 1.51514C8.35612 1.51514 8.03711 1.57699 7.72461 1.70068C7.41211 1.82438 7.13867 2.00342 6.9043 2.23779C6.66992 2.47217 6.49089 2.74561 6.36719 3.05811C6.24349 3.37061 6.18164 3.68962 6.18164 4.01514V6.51514C6.18164 6.68441 6.11979 6.83089 5.99609 6.95459C5.8724 7.07829 5.72591 7.14014 5.55664 7.14014C5.38737 7.14014 5.24089 7.07829 5.11719 6.95459C4.99349 6.83089 4.93164 6.68441 4.93164 6.51514V4.01514C4.93164 3.52034 5.02604 3.04183 5.21484 2.57959C5.40365 2.11735 5.67383 1.71045 6.02539 1.35889C6.37695 1.00732 6.78385 0.737142 7.24609 0.54834C7.70833 0.359538 8.18685 0.265137 8.68164 0.265137C9.17643 0.265137 9.65495 0.359538 10.1172 0.54834C10.5794 0.737142 10.9863 1.00732 11.3379 1.35889C11.6895 1.71045 11.9596 2.11735 12.1484 2.57959C12.3372 3.04183 12.4316 3.52034 12.4316 4.01514V6.51514C12.4316 6.68441 12.3698 6.83089 12.2461 6.95459C12.1224 7.07829 11.9759 7.14014 11.8066 7.14014C11.6374 7.14014 11.4909 7.07829 11.3672 6.95459C11.2435 6.83089 11.1816 6.68441 11.1816 6.51514V4.01514C11.1816 3.68962 11.1198 3.37061 10.9961 3.05811C10.8724 2.74561 10.6934 2.47217 10.459 2.23779C10.2246 2.00342 9.95117 1.82438 9.63867 1.70068C9.32617 1.57699 9.00716 1.51514 8.68164 1.51514Z" fill="black"/>
</svg>
