<svg width="15" height="12" viewBox="0 0 15 12" fill="none" xmlns="http://www.w3.org/2000/svg">
<path d="M0.771484 5.91992C0.771484 5.76758 0.827148 5.63574 0.938477 5.52441C1.0498 5.41309 1.18164 5.35742 1.33398 5.35742H13.709C13.8613 5.35742 13.9932 5.41309 14.1045 5.52441C14.2158 5.63574 14.2715 5.76758 14.2715 5.91992C14.2715 6.07227 14.2158 6.2041 14.1045 6.31543C13.9932 6.42676 13.8613 6.48242 13.709 6.48242H1.33398C1.18164 6.48242 1.0498 6.42676 0.938477 6.31543C0.827148 6.2041 0.771484 6.07227 0.771484 5.91992ZM8.24219 0.453125C8.35938 0.347656 8.49414 0.294922 8.64648 0.294922C8.79883 0.294922 8.93359 0.347656 9.05078 0.453125L14.1133 5.51562C14.2188 5.63281 14.2715 5.76758 14.2715 5.91992C14.2715 6.07227 14.2188 6.20703 14.1133 6.32422L9.05078 11.3867C8.93359 11.4922 8.79883 11.5449 8.64648 11.5449C8.49414 11.5449 8.35938 11.4922 8.24219 11.3867C8.13672 11.2695 8.08398 11.1348 8.08398 10.9824C8.08398 10.8301 8.13672 10.6953 8.24219 10.5781L12.918 5.91992L8.24219 1.26172C8.13672 1.14453 8.08398 1.00977 8.08398 0.857422C8.08398 0.705078 8.13672 0.570312 8.24219 0.453125Z" fill="white"/>
</svg>
