<svg width="20" height="21" viewBox="0 0 20 21" fill="none" xmlns="http://www.w3.org/2000/svg">
<path d="M6.875 7.13989C6.35417 7.13989 5.91146 7.32218 5.54688 7.68677C5.18229 8.05135 5 8.49406 5 9.01489C5 9.53573 5.18229 9.97843 5.54688 10.343C5.91146 10.7076 6.35417 10.8899 6.875 10.8899C7.39583 10.8899 7.83854 10.7076 8.20312 10.343C8.56771 9.97843 8.75 9.53573 8.75 9.01489C8.75 8.49406 8.56771 8.05135 8.20312 7.68677C7.83854 7.32218 7.39583 7.13989 6.875 7.13989ZM3.75 9.01489C3.75 8.15552 4.05599 7.41984 4.66797 6.80786C5.27995 6.19588 6.01562 5.88989 6.875 5.88989C7.73438 5.88989 8.47005 6.19588 9.08203 6.80786C9.69401 7.41984 10 8.15552 10 9.01489C10 9.87427 9.69401 10.6099 9.08203 11.2219C8.47005 11.8339 7.73438 12.1399 6.875 12.1399C6.01562 12.1399 5.27995 11.8339 4.66797 11.2219C4.05599 10.6099 3.75 9.87427 3.75 9.01489ZM6.875 3.38989C6.13281 3.38989 5.41667 3.53312 4.72656 3.81958C4.03646 4.10604 3.42448 4.50968 2.89062 5.03052C2.36979 5.56437 1.96615 6.17635 1.67969 6.86646C1.39323 7.55656 1.25 8.27271 1.25 9.01489C1.25 9.66593 1.33464 10.2974 1.50391 10.9094C1.67318 11.5214 1.89453 12.1106 2.16797 12.677C2.44141 13.2434 2.75391 13.7805 3.10547 14.2883C3.47005 14.7961 3.84115 15.2714 4.21875 15.7141C4.59635 16.1438 4.96745 16.5344 5.33203 16.886C5.69661 17.2375 6.02214 17.5305 6.30859 17.7649C6.41276 17.856 6.51367 17.9407 6.61133 18.0188C6.70898 18.0969 6.79688 18.1685 6.875 18.2336C6.95312 18.1685 7.04102 18.0969 7.13867 18.0188C7.23633 17.9407 7.33724 17.856 7.44141 17.7649C7.72786 17.5305 8.05339 17.2375 8.41797 16.886C8.78255 16.5344 9.15365 16.1438 9.53125 15.7141C9.90885 15.2714 10.2799 14.7961 10.6445 14.2883C10.9961 13.7805 11.3086 13.2434 11.582 12.677C11.8555 12.1106 12.0768 11.5214 12.2461 10.9094C12.4154 10.2974 12.5 9.66593 12.5 9.01489C12.5 8.27271 12.3568 7.55656 12.0703 6.86646C11.7839 6.17635 11.3802 5.56437 10.8594 5.03052C10.3255 4.50968 9.71354 4.10604 9.02344 3.81958C8.33333 3.53312 7.61719 3.38989 6.875 3.38989ZM6.875 19.0149C6.69271 19.2753 6.58854 19.425 6.5625 19.4641C6.53646 19.5032 6.52344 19.5227 6.52344 19.5227H6.50391C6.50391 19.5227 6.50391 19.5194 6.50391 19.5129C6.50391 19.5064 6.4974 19.5032 6.48438 19.5032C6.48438 19.5032 6.47786 19.4999 6.46484 19.4934C6.45182 19.4869 6.44531 19.4771 6.44531 19.4641C6.41927 19.4511 6.38672 19.4316 6.34766 19.4055C6.30859 19.3795 6.26953 19.3469 6.23047 19.3079C6.13932 19.2428 6.0319 19.1614 5.9082 19.0637C5.78451 18.9661 5.64453 18.8521 5.48828 18.7219C5.1888 18.4615 4.84701 18.149 4.46289 17.7844C4.07878 17.4198 3.6849 17.0032 3.28125 16.5344C2.8776 16.0787 2.48047 15.5709 2.08984 15.011C1.69922 14.4511 1.34766 13.8554 1.03516 13.2239C0.722656 12.5924 0.47526 11.925 0.292969 11.2219C0.0976562 10.5058 0 9.7701 0 9.01489C0 8.10343 0.175781 7.22778 0.527344 6.38794C0.878906 5.5481 1.3737 4.80265 2.01172 4.15161C2.66276 3.51359 3.4082 3.0188 4.24805 2.66724C5.08789 2.31567 5.96354 2.13989 6.875 2.13989C7.78646 2.13989 8.66211 2.31567 9.50195 2.66724C10.3418 3.0188 11.0872 3.51359 11.7383 4.15161C12.3763 4.80265 12.8711 5.5481 13.2227 6.38794C13.5742 7.22778 13.75 8.10343 13.75 9.01489C13.75 9.7701 13.6523 10.5058 13.457 11.2219C13.2747 11.925 13.0273 12.5924 12.7148 13.2239C12.4023 13.8554 12.0508 14.4511 11.6602 15.011C11.2695 15.5709 10.8724 16.0787 10.4688 16.5344C10.0651 17.0032 9.67122 17.4198 9.28711 17.7844C8.903 18.149 8.5612 18.4615 8.26172 18.7219C8.10547 18.8521 7.96549 18.9661 7.8418 19.0637C7.7181 19.1614 7.61068 19.2428 7.51953 19.3079C7.48047 19.3469 7.44141 19.3795 7.40234 19.4055C7.36328 19.4316 7.33073 19.4511 7.30469 19.4641C7.30469 19.4771 7.29818 19.4869 7.28516 19.4934C7.27214 19.4999 7.26562 19.5032 7.26562 19.5032C7.2526 19.5162 7.24609 19.5227 7.24609 19.5227H7.22656C7.22656 19.5227 7.21354 19.5032 7.1875 19.4641C7.16146 19.425 7.05729 19.2753 6.875 19.0149ZM6.875 19.0149L7.22656 19.5227C7.1224 19.6008 7.00521 19.6399 6.875 19.6399C6.74479 19.6399 6.6276 19.6008 6.52344 19.5227L6.875 19.0149Z" fill="#7E7E7E"/>
</svg>
