<svg width="25" height="26" viewBox="0 0 25 26" fill="none" xmlns="http://www.w3.org/2000/svg">
<g clip-path="url(#clip0_8360_21455)">
<path d="M11.8574 4.45264C11.9043 4.24951 12.0176 4.09717 12.1973 3.99561C12.377 3.89404 12.5684 3.8667 12.7715 3.91357C13.4746 4.10107 14.1387 4.37451 14.7637 4.73389C15.3887 5.09326 15.959 5.53076 16.4746 6.04639C16.9902 6.56201 17.4277 7.13232 17.7871 7.75732C18.1465 8.38232 18.4199 9.04639 18.6074 9.74951C18.6543 9.95264 18.627 10.144 18.5254 10.3237C18.4238 10.5034 18.2715 10.6167 18.0684 10.6636C17.8652 10.7261 17.6777 10.7026 17.5059 10.5933C17.334 10.4839 17.2168 10.3354 17.1543 10.1479C16.998 9.56982 16.7715 9.02295 16.4746 8.50732C16.1777 7.9917 15.8184 7.53076 15.3965 7.12451C14.9902 6.70264 14.5293 6.34326 14.0137 6.04639C13.498 5.74951 12.9512 5.52295 12.373 5.3667C12.1855 5.3042 12.0371 5.18701 11.9277 5.01514C11.8184 4.84326 11.7949 4.65576 11.8574 4.45264ZM11.0605 7.33545C11.123 7.14795 11.2441 6.99951 11.4238 6.89014C11.6035 6.78076 11.7949 6.75732 11.998 6.81982C12.4355 6.9292 12.8535 7.10107 13.252 7.33545C13.6504 7.56982 14.0137 7.85107 14.3418 8.1792C14.6699 8.50732 14.9512 8.87061 15.1855 9.26904C15.4199 9.66748 15.5918 10.0854 15.7012 10.5229C15.7637 10.7261 15.7402 10.9175 15.6309 11.0972C15.5215 11.2769 15.373 11.3979 15.1855 11.4604C14.9824 11.5073 14.791 11.48 14.6113 11.3784C14.4316 11.2769 14.3105 11.1245 14.248 10.9214C14.1699 10.5933 14.0488 10.2886 13.8848 10.0073C13.7207 9.72607 13.5215 9.46826 13.2871 9.23389C13.0527 8.99951 12.7949 8.80029 12.5137 8.63623C12.2324 8.47217 11.9277 8.35107 11.5996 8.27295C11.3965 8.21045 11.2441 8.08936 11.1426 7.90967C11.041 7.72998 11.0137 7.53857 11.0605 7.33545ZM5.22461 3.18701C5.38086 3.17139 5.53711 3.1792 5.69336 3.21045C5.84961 3.2417 5.99805 3.29639 6.13867 3.37451C6.2793 3.45264 6.4043 3.5542 6.51367 3.6792C6.62305 3.8042 6.70898 3.93701 6.77148 4.07764L8.66992 8.48389C8.7168 8.59326 8.74805 8.70654 8.76367 8.82373C8.7793 8.94092 8.78711 9.06201 8.78711 9.18701C8.77148 9.31201 8.74414 9.43311 8.70508 9.55029C8.66602 9.66748 8.61523 9.78076 8.55273 9.89014L6.98242 12.2573C7.32617 12.9761 7.7832 13.6206 8.35352 14.1909C8.92383 14.7612 9.56836 15.2183 10.2871 15.562L12.6309 13.9917C12.7246 13.9292 12.834 13.8745 12.959 13.8276C13.084 13.7808 13.209 13.7495 13.334 13.7339C13.4434 13.7339 13.5605 13.7417 13.6855 13.7573C13.8105 13.7729 13.9355 13.8042 14.0605 13.8511L18.4434 15.7495C18.584 15.812 18.7168 15.8979 18.8418 16.0073C18.9668 16.1167 19.0684 16.2417 19.1465 16.3823C19.2246 16.5229 19.2793 16.6714 19.3105 16.8276C19.3418 16.9839 19.3496 17.1401 19.334 17.2964C19.2559 17.937 19.0684 18.5386 18.7715 19.1011C18.4746 19.6636 18.084 20.1558 17.5996 20.5776C17.1152 20.9995 16.5762 21.3237 15.9824 21.5503C15.3887 21.7769 14.7715 21.8901 14.1309 21.8901C13.2402 21.8901 12.3574 21.8042 11.4824 21.6323C10.6074 21.4604 9.76758 21.2065 8.96289 20.8706C8.1582 20.5347 7.38086 20.1167 6.63086 19.6167C5.89648 19.1323 5.2168 18.5698 4.5918 17.9292C3.95117 17.3042 3.38867 16.6245 2.9043 15.8901C2.4043 15.1401 1.98633 14.3628 1.65039 13.5581C1.31445 12.7534 1.06055 11.9136 0.888672 11.0386C0.716797 10.1636 0.630859 9.28076 0.630859 8.39014C0.630859 7.74951 0.744141 7.13232 0.970703 6.53857C1.19727 5.94482 1.52148 5.40576 1.94336 4.92139C2.36523 4.43701 2.85742 4.04639 3.41992 3.74951C3.98242 3.45264 4.58398 3.26514 5.22461 3.18701ZM6.30273 12.5854L5.62305 12.9136C5.57617 12.8042 5.53711 12.6831 5.50586 12.5503C5.47461 12.4175 5.4668 12.2886 5.48242 12.1636C5.49805 12.0386 5.52539 11.9175 5.56445 11.8003C5.60352 11.6831 5.6543 11.5698 5.7168 11.4604V11.437L7.28711 9.06982L5.38867 4.66357C4.95117 4.72607 4.5293 4.86279 4.12305 5.07373C3.7168 5.28467 3.36523 5.56201 3.06836 5.90576C2.77148 6.24951 2.54102 6.63623 2.37695 7.06592C2.21289 7.49561 2.13086 7.93701 2.13086 8.39014L6.30273 12.5854ZM14.1309 20.3901C14.584 20.3901 15.0254 20.3081 15.4551 20.144C15.8848 19.98 16.2715 19.7495 16.6152 19.4526C16.959 19.1558 17.2363 18.8042 17.4473 18.3979C17.6582 17.9917 17.7949 17.5698 17.8574 17.1323L13.4512 15.2339L11.1309 16.8042C11.1152 16.8042 11.1074 16.8042 11.1074 16.8042C11.0137 16.8823 10.9043 16.9409 10.7793 16.98C10.6543 17.019 10.5293 17.0464 10.4043 17.062C10.2637 17.062 10.1309 17.0503 10.0059 17.0269C9.88086 17.0034 9.75586 16.9683 9.63086 16.9214C8.75586 16.4995 7.97461 15.9448 7.28711 15.2573C6.59961 14.5698 6.04492 13.7886 5.62305 12.9136L6.30273 12.5854L14.1309 20.3901ZM2.13086 8.39014C2.13086 9.18701 2.20898 9.96826 2.36523 10.7339C2.52148 11.5151 2.74805 12.2651 3.04492 12.9839C3.3418 13.7026 3.70898 14.3901 4.14648 15.0464C4.58398 15.7026 5.08398 16.312 5.64648 16.8745C6.20898 17.437 6.81836 17.937 7.47461 18.3745C8.13086 18.812 8.81836 19.1792 9.53711 19.4761C10.2559 19.7729 11.0059 19.9995 11.7871 20.1558C12.5527 20.312 13.334 20.3901 14.1309 20.3901L2.13086 8.39014Z" fill="black"/>
</g>
<defs>
<clipPath id="clip0_8360_21455">
<rect width="24" height="25" fill="white" transform="matrix(1 0 0 -1 0.630859 25.3901)"/>
</clipPath>
</defs>
</svg>
