<svg width="18" height="18" viewBox="0 0 18 18" fill="none" xmlns="http://www.w3.org/2000/svg">
<path d="M8.03703 0.874414C8.14119 0.796289 8.25513 0.737696 8.37882 0.698633C8.50252 0.659571 8.62947 0.640039 8.75968 0.640039C8.88989 0.640039 9.01684 0.659571 9.14054 0.698633C9.26424 0.737696 9.37817 0.796289 9.48234 0.874414C9.59953 0.939518 9.69718 1.02415 9.77531 1.12832C9.85343 1.23249 9.91203 1.34316 9.95109 1.46035L11.6698 5.77676C11.6698 5.78978 11.6698 5.79629 11.6698 5.79629C11.6698 5.79629 11.6698 5.79954 11.6698 5.80606C11.6698 5.81257 11.6763 5.81582 11.6894 5.81582L16.2987 6.10879C16.8977 6.14785 17.2818 6.45059 17.4511 7.01699C17.6204 7.5834 17.4836 8.04889 17.0409 8.41348L13.5058 11.3627C13.5058 11.3627 13.5025 11.366 13.496 11.3725C13.4895 11.379 13.4862 11.3822 13.4862 11.3822C13.4862 11.3822 13.4862 11.3855 13.4862 11.392C13.4862 11.3985 13.4862 11.4018 13.4862 11.4018L14.6386 15.8939C14.7688 16.4408 14.606 16.8966 14.1503 17.2611C13.6946 17.6257 13.2128 17.6452 12.705 17.3197L8.75968 14.8197L5.08781 17.1439C4.52791 17.4955 3.99731 17.4695 3.49601 17.0658C2.99471 16.6622 2.82218 16.1609 2.97843 15.5619L4.03312 11.4018C4.03312 11.4018 4.03312 11.3985 4.03312 11.392C4.03312 11.3855 4.03312 11.3822 4.03312 11.3822C4.03312 11.3822 4.02986 11.379 4.02335 11.3725C4.01684 11.366 4.01359 11.3627 4.01359 11.3627L0.478433 8.41348C0.0357242 8.04889 -0.100995 7.5834 0.0682763 7.01699C0.237547 6.45059 0.621662 6.14785 1.22062 6.10879L5.82999 5.81582C5.84302 5.81582 5.84953 5.81257 5.84953 5.80606C5.84953 5.79954 5.84953 5.79629 5.84953 5.79629C5.84953 5.79629 5.84953 5.78978 5.84953 5.77676L7.56828 1.46035C7.60734 1.34316 7.66593 1.23249 7.74406 1.12832C7.82218 1.02415 7.91984 0.939518 8.03703 0.874414ZM9.44328 13.765L13.3691 16.265C13.3821 16.265 13.3886 16.265 13.3886 16.265C13.3886 16.265 13.3951 16.265 13.4081 16.265C13.4081 16.252 13.4114 16.2455 13.4179 16.2455C13.4244 16.2455 13.4277 16.239 13.4277 16.226C13.4277 16.226 13.4277 16.2227 13.4277 16.2162C13.4277 16.2097 13.4277 16.2064 13.4277 16.2064L12.2753 11.7143C12.2493 11.5971 12.2395 11.4766 12.246 11.3529C12.2525 11.2292 12.2753 11.1088 12.3144 10.9916C12.3404 10.8744 12.3892 10.7637 12.4609 10.6596C12.5325 10.5554 12.6138 10.4643 12.705 10.3861L16.2402 7.45645C16.2402 7.44343 16.2434 7.43691 16.2499 7.43691C16.2564 7.43691 16.2597 7.43691 16.2597 7.43691C16.2597 7.43691 16.2597 7.4304 16.2597 7.41738C16.2597 7.41738 16.2597 7.41413 16.2597 7.40762C16.2597 7.40111 16.2597 7.39134 16.2597 7.37832C16.2597 7.37832 16.2564 7.37507 16.2499 7.36856C16.2434 7.36204 16.2402 7.35879 16.2402 7.35879C16.2402 7.35879 16.2336 7.35879 16.2206 7.35879L11.6308 7.06582C11.6308 7.06582 11.6275 7.06582 11.621 7.06582C11.6145 7.06582 11.6112 7.06582 11.6112 7.06582C11.4941 7.0528 11.3769 7.02676 11.2597 6.9877C11.1425 6.94863 11.0383 6.89004 10.9472 6.81191C10.843 6.73379 10.7551 6.64915 10.6835 6.55801C10.6119 6.46686 10.55 6.3627 10.498 6.24551L8.77921 1.90957C8.77921 1.89655 8.77921 1.89004 8.77921 1.89004C8.77921 1.89004 8.77596 1.89004 8.76945 1.89004C8.76294 1.89004 8.75968 1.89004 8.75968 1.89004C8.75968 1.89004 8.75643 1.89004 8.74992 1.89004C8.74341 1.89004 8.74015 1.89004 8.74015 1.89004C8.74015 1.89004 8.74015 1.89655 8.74015 1.90957L7.0214 6.24551C6.96932 6.3627 6.90747 6.46686 6.83585 6.55801C6.76424 6.64915 6.67635 6.73379 6.57218 6.81191C6.48104 6.89004 6.37687 6.94863 6.25968 6.9877C6.14249 7.02676 6.02531 7.0528 5.90812 7.06582L1.29874 7.35879C1.28572 7.35879 1.27921 7.35879 1.27921 7.35879C1.27921 7.35879 1.27596 7.36204 1.26945 7.36856C1.26294 7.37507 1.25968 7.37832 1.25968 7.37832C1.25968 7.39134 1.25968 7.40111 1.25968 7.40762C1.25968 7.41413 1.25968 7.41738 1.25968 7.41738C1.25968 7.4304 1.25968 7.43691 1.25968 7.43691C1.25968 7.43691 1.26294 7.43691 1.26945 7.43691C1.27596 7.43691 1.27921 7.44343 1.27921 7.45645L4.81437 10.3861C4.90552 10.4643 4.9869 10.5554 5.05851 10.6596C5.13013 10.7637 5.17895 10.8744 5.20499 10.9916C5.24406 11.1088 5.26684 11.2292 5.27335 11.3529C5.27986 11.4766 5.2701 11.5971 5.24406 11.7143L4.18937 15.8744C4.17635 15.9135 4.17635 15.9525 4.18937 15.9916C4.20239 16.0307 4.22192 16.0567 4.24796 16.0697C4.26098 16.0827 4.27401 16.0925 4.28703 16.099C4.30005 16.1055 4.31307 16.1088 4.32609 16.1088C4.33911 16.1088 4.35213 16.1088 4.36515 16.1088C4.37817 16.1088 4.3977 16.1023 4.42375 16.0893L8.07609 13.765C8.18025 13.6999 8.29093 13.6511 8.40812 13.6186C8.52531 13.586 8.6425 13.5697 8.75968 13.5697C8.87687 13.5697 8.99406 13.586 9.11125 13.6186C9.22843 13.6511 9.33911 13.6999 9.44328 13.765Z" fill="black"/>
</svg>
