<svg width="17" height="16" viewBox="0 0 17 16" fill="none" xmlns="http://www.w3.org/2000/svg">
<path d="M8.19901 1.5151C7.60005 1.5151 7.03365 1.63229 6.49979 1.86666C5.96594 2.08801 5.50045 2.39726 5.10331 2.79439C4.70617 3.19153 4.39693 3.65703 4.17558 4.19088C3.9412 4.72473 3.82401 5.29114 3.82401 5.8901C3.82401 6.48906 3.9412 7.05546 4.17558 7.58932C4.39693 8.12317 4.70617 8.58867 5.10331 8.9858C5.50045 9.38294 5.96594 9.69218 6.49979 9.91354C7.03365 10.1479 7.60005 10.2651 8.19901 10.2651C8.79797 10.2651 9.36438 10.1479 9.89823 9.91354C10.4321 9.69218 10.8976 9.38294 11.2947 8.9858C11.6919 8.58867 12.0011 8.12317 12.2225 7.58932C12.4568 7.05546 12.574 6.48906 12.574 5.8901C12.574 5.29114 12.4568 4.72473 12.2225 4.19088C12.0011 3.65703 11.6919 3.19153 11.2947 2.79439C10.8976 2.39726 10.4321 2.08801 9.89823 1.86666C9.36438 1.63229 8.79797 1.5151 8.19901 1.5151ZM2.57401 5.8901C2.57401 5.10885 2.72375 4.37968 3.02323 3.7026C3.30969 3.01249 3.70683 2.41354 4.21464 1.90572C4.72245 1.39791 5.32141 1.00078 6.01151 0.714316C6.6886 0.414838 7.41776 0.265098 8.19901 0.265098C8.98026 0.265098 9.70943 0.414838 10.3865 0.714316C11.0766 1.00078 11.6756 1.39791 12.1834 1.90572C12.6912 2.41354 13.0883 3.01249 13.3748 3.7026C13.6743 4.37968 13.824 5.10885 13.824 5.8901C13.824 6.67135 13.6743 7.40052 13.3748 8.0776C13.0883 8.7677 12.6912 9.36666 12.1834 9.87447C11.6756 10.3823 11.0766 10.7794 10.3865 11.0659C9.70943 11.3654 8.98026 11.5151 8.19901 11.5151C7.41776 11.5151 6.6886 11.3654 6.01151 11.0659C5.32141 10.7794 4.72245 10.3823 4.21464 9.87447C3.70683 9.36666 3.30969 8.7677 3.02323 8.0776C2.72375 7.40052 2.57401 6.67135 2.57401 5.8901ZM8.19901 11.5151C7.48287 11.5151 6.77974 11.6062 6.08964 11.7885C5.39953 11.9708 4.74849 12.2443 4.13651 12.6088C3.52453 12.9604 2.96464 13.3901 2.45683 13.8979C1.94901 14.4057 1.51933 14.9656 1.16776 15.5776C1.07662 15.7208 0.946409 15.8152 0.777138 15.8608C0.607867 15.9064 0.451617 15.8901 0.308388 15.812C0.165159 15.7208 0.0707579 15.5906 0.025185 15.4213C-0.0203879 15.2521 -0.00411185 15.0958 0.0740132 14.9526C0.49068 14.2365 0.988727 13.5887 1.56815 13.0092C2.14758 12.4298 2.79537 11.9318 3.51151 11.5151C4.22766 11.1115 4.98287 10.8022 5.77714 10.5874C6.57141 10.3725 7.3787 10.2651 8.19901 10.2651C9.01933 10.2651 9.82662 10.3725 10.6209 10.5874C11.4152 10.8022 12.1704 11.1115 12.8865 11.5151C13.6027 11.9318 14.2504 12.4298 14.8299 13.0092C15.4093 13.5887 15.9073 14.2365 16.324 14.9526C16.4021 15.0958 16.4184 15.2521 16.3728 15.4213C16.3273 15.5906 16.2329 15.7208 16.0896 15.812C15.9464 15.8901 15.7902 15.9064 15.6209 15.8608C15.4516 15.8152 15.3214 15.7208 15.2303 15.5776C14.8787 14.9656 14.449 14.4057 13.9412 13.8979C13.4334 13.3901 12.8735 12.9604 12.2615 12.6088C11.6495 12.2443 10.9985 11.9708 10.3084 11.7885C9.61828 11.6062 8.91516 11.5151 8.19901 11.5151Z" fill="black"/>
</svg>
