<svg width="17" height="17" viewBox="0 0 17 17" fill="none" xmlns="http://www.w3.org/2000/svg">
<path d="M7.1875 1.51514C6.36719 1.51514 5.59896 1.67139 4.88281 1.98389C4.15365 2.29639 3.52214 2.71956 2.98828 3.25342C2.45443 3.78727 2.03125 4.41878 1.71875 5.14795C1.40625 5.8641 1.25 6.63232 1.25 7.45264C1.25 8.27295 1.40625 9.04118 1.71875 9.75732C2.03125 10.4865 2.45443 11.118 2.98828 11.6519C3.52214 12.1857 4.15365 12.6089 4.88281 12.9214C5.59896 13.2339 6.36719 13.3901 7.1875 13.3901C8.00781 13.3901 8.77604 13.2339 9.49219 12.9214C10.2214 12.6089 10.8529 12.1857 11.3867 11.6519C11.9206 11.118 12.3438 10.4865 12.6562 9.75732C12.9688 9.04118 13.125 8.27295 13.125 7.45264C13.125 6.63232 12.9688 5.8641 12.6562 5.14795C12.3438 4.41878 11.9206 3.78727 11.3867 3.25342C10.8529 2.71956 10.2214 2.29639 9.49219 1.98389C8.77604 1.67139 8.00781 1.51514 7.1875 1.51514ZM0 7.45264C0 6.46305 0.188802 5.53206 0.566406 4.65967C0.94401 3.78727 1.45833 3.02555 2.10938 2.37451C2.76042 1.72347 3.52214 1.20915 4.39453 0.831543C5.26693 0.453939 6.19792 0.265137 7.1875 0.265137C8.17708 0.265137 9.10807 0.453939 9.98047 0.831543C10.8529 1.20915 11.6146 1.72347 12.2656 2.37451C12.9167 3.02555 13.431 3.78727 13.8086 4.65967C14.1862 5.53206 14.375 6.46305 14.375 7.45264C14.375 8.44222 14.1862 9.37321 13.8086 10.2456C13.431 11.118 12.9167 11.8797 12.2656 12.5308C11.6146 13.1818 10.8529 13.6961 9.98047 14.0737C9.10807 14.4513 8.17708 14.6401 7.1875 14.6401C6.19792 14.6401 5.26693 14.4513 4.39453 14.0737C3.52214 13.6961 2.76042 13.1818 2.10938 12.5308C1.45833 11.8797 0.94401 11.118 0.566406 10.2456C0.188802 9.37321 0 8.44222 0 7.45264ZM11.3867 11.6519C11.5039 11.5347 11.6504 11.4761 11.8262 11.4761C12.002 11.4761 12.1484 11.5347 12.2656 11.6519L16.0742 15.4409C16.1914 15.5711 16.25 15.7209 16.25 15.8901C16.25 16.0594 16.1914 16.2091 16.0742 16.3394C15.944 16.4565 15.7943 16.5151 15.625 16.5151C15.4557 16.5151 15.306 16.4565 15.1758 16.3394L11.3867 12.5308C11.2695 12.4136 11.2109 12.2671 11.2109 12.0913C11.2109 11.9155 11.2695 11.769 11.3867 11.6519Z" fill="black"/>
</svg>
